<svg width="67" height="76" viewBox="0 0 67 76" fill="none" xmlns="http://www.w3.org/2000/svg">
<line x1="7.5" y1="1" x2="7.5" y2="51" stroke="#747474" stroke-width="13"/>
<line x1="60.5" y1="1" x2="60.5" y2="51" stroke="#747474" stroke-width="13"/>
<line y1="-6.5" x2="41.4005" y2="-6.5" transform="matrix(0.797092 0.603858 -0.392026 0.919954 1 51)" stroke="#747474" stroke-width="13"/>
<line y1="-6.5" x2="41.4005" y2="-6.5" transform="matrix(-0.797092 0.603858 0.392026 0.919954 67 51)" stroke="#747474" stroke-width="13"/>
<line x1="35.5617" y1="5.95217" x2="20.5617" y2="17.9522" stroke="#747474" stroke-width="5"/>
<line y1="-2.5" x2="16" y2="-2.5" transform="matrix(0.780869 0.624695 0.624695 -0.780869 34 4)" stroke="#747474" stroke-width="5"/>
<line y1="-2.5" x2="19.2094" y2="-2.5" transform="matrix(0.780869 0.624695 0.624695 -0.780869 22 36)" stroke="#747474" stroke-width="5"/>
<line x1="45.0556" y1="39.9522" x2="32.5617" y2="49.9473" stroke="#747474" stroke-width="5"/>
<line x1="21.5" y1="16" x2="21.5" y2="40" stroke="#747474" stroke-width="5"/>
<circle cx="34.5" cy="26.5" r="5.5" fill="#747474"/>
<line x1="34.5" y1="29.5" x2="34.5" y2="33.5" stroke="#747474" stroke-width="5" stroke-linecap="round"/>
<line x1="6.5" x2="6.5" y2="50" stroke="white" stroke-width="13"/>
<line x1="59.5" x2="59.5" y2="50" stroke="white" stroke-width="13"/>
<line y1="-6.5" x2="41.4005" y2="-6.5" transform="matrix(0.797092 0.603858 -0.392026 0.919954 0 50)" stroke="white" stroke-width="13"/>
<line y1="-6.5" x2="41.4005" y2="-6.5" transform="matrix(-0.797092 0.603858 0.392026 0.919954 66 50)" stroke="url(#paint0_linear_103_42)" stroke-width="13"/>
<line x1="34.5617" y1="4.95217" x2="19.5617" y2="16.9522" stroke="white" stroke-width="5"/>
<line y1="-2.5" x2="16" y2="-2.5" transform="matrix(0.780869 0.624695 0.624695 -0.780869 33 3)" stroke="white" stroke-width="5"/>
<line y1="-2.5" x2="19.2094" y2="-2.5" transform="matrix(0.780869 0.624695 0.624695 -0.780869 21 35)" stroke="white" stroke-width="5"/>
<line x1="44.0556" y1="38.9522" x2="31.5617" y2="48.9473" stroke="white" stroke-width="5"/>
<line x1="20.5" y1="15" x2="20.5" y2="39" stroke="white" stroke-width="5"/>
<circle cx="33.5" cy="25.5" r="5.5" fill="white"/>
<line x1="33.5" y1="28.5" x2="33.5" y2="32.5" stroke="white" stroke-width="5" stroke-linecap="round"/>
<defs>
<linearGradient id="paint0_linear_103_42" x1="20.7002" y1="0" x2="20.7002" y2="1" gradientUnits="userSpaceOnUse">
<stop stop-color="white"/>
<stop offset="1" stop-opacity="0"/>
<stop offset="1" stop-color="#0066FF"/>
</linearGradient>
</defs>
</svg>
